<svg width="24" height="24" viewBox="0 0 24 24" fill="none" xmlns="http://www.w3.org/2000/svg">
<path d="M12 12V15M18.819 13.329L13.495 19.319C13.3074 19.5302 13.0771 19.6992 12.8194 19.8149C12.5617 19.9306 12.2825 19.9905 12 19.9905C11.7175 19.9905 11.4382 19.9306 11.1806 19.8149C10.9229 19.6992 10.6926 19.5302 10.505 19.319L5.18099 13.329C4.85542 12.9629 4.67557 12.49 4.67557 12C4.67557 11.51 4.85542 11.0371 5.18099 10.671L10.505 4.681C10.6926 4.46984 10.9229 4.30083 11.1806 4.1851C11.4382 4.06936 11.7175 4.00952 12 4.00952C12.2825 4.00952 12.5617 4.06936 12.8194 4.1851C13.0771 4.30083 13.3074 4.46984 13.495 4.681L18.819 10.671C19.1446 11.0371 19.3244 11.51 19.3244 12C19.3244 12.49 19.1446 12.9629 18.819 13.329V13.329ZM8.99999 12H12H8.99999ZM15 12H12H15ZM12 12V9V12Z" stroke="#77C63D" stroke-width="1.5" stroke-linecap="round" stroke-linejoin="round"/>
</svg>
