<svg width="24" height="24" viewBox="0 0 24 24" fill="none" xmlns="http://www.w3.org/2000/svg">
<path opacity="0.3" d="M12.35 16.18L7.81999 11.65L5.29999 18.7L12.35 16.18Z" fill="#9747FF"/>
<path d="M2 22L16 17L7 8.00001L2 22ZM12.35 16.18L5.3 18.7L7.82 11.65L12.35 16.18V16.18ZM14.53 12.53L20.12 6.94001C20.2361 6.8236 20.3741 6.73124 20.5259 6.66823C20.6778 6.60521 20.8406 6.57277 21.005 6.57277C21.1694 6.57277 21.3322 6.60521 21.4841 6.66823C21.6359 6.73124 21.7739 6.8236 21.89 6.94001L22.48 7.53001L23.54 6.47001L22.95 5.88001C22.4332 5.36596 21.7339 5.07739 21.005 5.07739C20.2761 5.07739 19.5768 5.36596 19.06 5.88001L13.47 11.47L14.53 12.53V12.53ZM9.47 7.47001L10.53 8.53001L11.12 7.94001C11.6341 7.42321 11.9226 6.72393 11.9226 5.99501C11.9226 5.26608 11.6341 4.5668 11.12 4.05001L10.53 3.46001L9.47 4.53001L10.06 5.12001C10.54 5.60001 10.54 6.40001 10.06 6.88001L9.47 7.47001V7.47001ZM17.06 11.88L15.47 13.47L16.53 14.53L18.12 12.94C18.2361 12.8236 18.3741 12.7312 18.5259 12.6682C18.6778 12.6052 18.8406 12.5728 19.005 12.5728C19.1694 12.5728 19.3322 12.6052 19.4841 12.6682C19.6359 12.7312 19.7739 12.8236 19.89 12.94L21.5 14.55L22.56 13.49L20.95 11.88C20.4332 11.366 19.7339 11.0774 19.005 11.0774C18.2761 11.0774 17.5768 11.366 17.06 11.88V11.88ZM15.06 5.88001L11.47 9.47001L12.53 10.53L16.12 6.94001C16.6341 6.42321 16.9226 5.72393 16.9226 4.99501C16.9226 4.26608 16.6341 3.5668 16.12 3.05001L14.53 1.46001L13.47 2.52001L15.06 4.11001C15.54 4.60001 15.54 5.40001 15.06 5.88001V5.88001Z" fill="#7F7DC4"/>
</svg>
