<svg width="24" height="24" viewBox="0 0 24 24" fill="none" xmlns="http://www.w3.org/2000/svg">
<path d="M12.4 17H11.6C11.4409 17 11.2883 16.9368 11.1757 16.8243C11.0632 16.7117 11 16.5591 11 16.4V14.6C11 14.4409 11.0632 14.2883 11.1757 14.1757C11.2883 14.0632 11.4409 14 11.6 14H12.4C12.5591 14 12.7117 14.0632 12.8243 14.1757C12.9368 14.2883 13 14.4409 13 14.6V16.4C13 16.4788 12.9845 16.5568 12.9543 16.6296C12.9242 16.7024 12.88 16.7685 12.8243 16.8243C12.7685 16.88 12.7024 16.9242 12.6296 16.9543C12.5568 16.9845 12.4788 17 12.4 17V17Z" fill="#444444" stroke="#444444" stroke-width="1.5" stroke-linecap="round" stroke-linejoin="round"/>
<path d="M19 13V19.4C19 19.5591 18.9368 19.7117 18.8243 19.8243C18.7117 19.9368 18.5591 20 18.4 20H5.6C5.44087 20 5.28826 19.9368 5.17574 19.8243C5.06321 19.7117 5 19.5591 5 19.4V13M3 9.5L12 4L21 9.5H3Z" stroke="#444444" stroke-width="1.5" stroke-linecap="round" stroke-linejoin="round"/>
</svg>
