<svg width="24" height="24" viewBox="0 0 24 24" fill="none" xmlns="http://www.w3.org/2000/svg">
<path d="M15.5 15.5L19 19L15.5 15.5ZM5 11C5 11.7879 5.15519 12.5681 5.45672 13.2961C5.75825 14.0241 6.20021 14.6855 6.75736 15.2426C7.31451 15.7998 7.97595 16.2417 8.7039 16.5433C9.43185 16.8448 10.2121 17 11 17C11.7879 17 12.5681 16.8448 13.2961 16.5433C14.0241 16.2417 14.6855 15.7998 15.2426 15.2426C15.7998 14.6855 16.2417 14.0241 16.5433 13.2961C16.8448 12.5681 17 11.7879 17 11C17 9.4087 16.3679 7.88258 15.2426 6.75736C14.1174 5.63214 12.5913 5 11 5C9.4087 5 7.88258 5.63214 6.75736 6.75736C5.63214 7.88258 5 9.4087 5 11V11Z" stroke="#444444" stroke-width="1.5" stroke-linecap="round" stroke-linejoin="round"/>
</svg>
