<svg width="33" height="33" viewBox="0 0 33 33" fill="none" xmlns="http://www.w3.org/2000/svg">
<path d="M13.4 14.175V10.3M16.5 32C25.0606 32 32 25.0606 32 16.5C32 7.93935 25.0606 1 16.5 1C7.93935 1 1 7.93935 1 16.5C1 25.0606 7.93935 32 16.5 32ZM19.6 14.175V10.3V14.175Z" stroke="black" stroke-width="1.5" stroke-linecap="round" stroke-linejoin="round"/>
<path d="M16.5 32V22.7M16.5 22.7C18.1444 22.7 19.7214 22.0468 20.8841 20.8841C22.0468 19.7213 22.7 18.1443 22.7 16.5V14.175H10.3V16.5C10.3 18.1443 10.9532 19.7213 12.116 20.8841C13.2787 22.0468 14.8557 22.7 16.5 22.7Z" stroke="black" stroke-width="1.5" stroke-linecap="round" stroke-linejoin="round"/>
</svg>
